<svg width="120" height="120" xmlns="http://www.w3.org/2000/svg">
 <g>
  <title>Layer 1</title>
  <g id="svg_1">
   <metadata id="svg_6">image/svg+xml</metadata>
   <g id="svg_2">
    <path d="m88.45267,20.39713c-5.40456,-0.16722 -8.20491,2.3622 -8.88118,2.5968c0.61524,-1.16523 1.02694,-1.89936 2.60032,-3.53766c-5.35164,-0.0561 -10.31381,1.10208 -14.09982,4.64397c-5.07788,4.75015 -4.68312,8.68574 -4.69335,8.66634c0.001,0.002 -0.80116,-2.56646 -1.04176,-5.31354c-5.52591,7.64928 -7.70784,17.78459 -3.51825,25.34532c2.60068,-6.2738 6.73029,-11.68083 12.0523,-15.9445c0.17533,-4.47393 1.9752,-8.25394 4.82,-11.04477c-2.56716,3.0727 -3.69993,6.57331 -3.58563,10.10144c6.19019,-4.61821 13.77738,-7.6962 22.11141,-8.7062c-6.03391,1.10878 -11.50091,3.51367 -16.27929,6.7938c2.99085,1.36595 6.40645,1.58009 9.99631,0.32984c-3.4417,1.6129 -7.26228,1.87678 -11.12731,0.47202c-3.43041,2.51213 -6.48124,5.4804 -9.10343,8.74254c4.65525,1.52188 9.74725,1.2072 14.81455,-1.37548c-4.65173,3.00461 -10.11661,4.13138 -15.95614,2.85185c-2.32798,3.1242 -4.2792,6.47983 -5.80426,9.93811c1.87855,1.385 10.03089,5.73052 24.01465,-4.58153c-1.9745,-0.58349 -3.5747,-1.40864 -3.57541,-1.41005c0.0445,0.0198 1.4411,0.14817 5.52556,-2.2987c3.61104,-2.11173 6.71724,-5.9369 9.0103,-8.91434c-1.95051,-0.71861 -3.46957,-1.47285 -3.47028,-1.47461c-0.001,-0.001 2.5206,0.16968 6.4322,-2.8247c3.48897,-2.67088 7.38399,-6.54261 7.39599,-6.43325c0.0247,0.0233 -8.59226,-6.3433 -17.63748,-6.6227" id="svg_5" fill="#000000" fill-rule="nonzero" stroke-width="0.03528"/>
    <path d="m26.16191,34.30733c4.10149,-1.19228 6.7131,0.18422 7.27437,0.22948c-0.68748,-0.76706 -1.13907,-1.24548 -2.64709,-2.18406c4.08133,-1.09739 8.09089,-1.19268 11.64521,0.76111c4.7672,2.6204 5.19783,5.69818 5.20227,5.68151c-0.00081,0.002 0.13467,-2.11419 -0.19274,-4.25578c5.64943,4.74214 9.20497,12.03797 7.40905,18.6271c-3.15635,-4.27007 -7.32075,-7.57773 -12.1839,-9.77927c-0.96691,-3.37555 -3.04709,-5.90265 -5.74177,-7.46934c2.535,1.83627 4.0527,4.28158 4.62244,6.9933c-5.59297,-2.30039 -11.96698,-3.15163 -18.52727,-2.27895c4.82002,-0.34383 15.0298,0.35455 23.31423,7.22913c-3.27571,2.07767 -7.22761,2.84155 -11.58272,1.87121c4.116,1.37333 8.50418,1.15576 12.73066,-0.97074c2.36163,1.92282 4.4785,4.09616 6.28853,6.4319c-1.1786,1.42613 -6.60263,6.34494 -19.21475,1.23993c1.40117,-0.83377 2.47089,-1.77831 2.47129,-1.7795c-0.0302,0.0238 -1.07415,0.39703 -4.65308,-0.66304c-3.15394,-0.89808 -6.24094,-3.20205 -8.54894,-5.02006c1.35762,-0.93183 2.37896,-1.80609 2.37896,-1.80768c0.00039,-0.00081 -1.89551,0.62612 -5.44379,-0.88538c-3.16522,-1.34871 -6.86431,-3.53238 -6.85302,-3.44662c-0.0145,0.0226 5.38855,-6.52877 12.25206,-8.52425" id="svg_4" fill="#000000" fill-rule="nonzero" stroke-width="0.04001"/>
    <path d="m55.60327,90.69994c-2.99089,-2.78316 -3.11891,-5.61706 -3.35465,-6.10128c-0.30328,0.94728 -0.48119,1.55657 -0.5271,3.26459c-2.9026,-2.81363 -4.93597,-6.06629 -5.0428,-9.9638c-0.14303,-5.22625 2.20774,-7.11158 2.19185,-7.10671c0.002,0 -1.82455,0.94068 -3.44692,2.27518c1.19194,-7.00825 5.52928,-13.56279 11.88719,-15.36164c-2.01438,4.72154 -2.73705,9.79389 -2.19847,14.89152c-2.33709,2.47475 -3.42573,5.44312 -3.41602,8.44032c0.29225,-2.99941 1.58705,-5.46485 3.56567,-7.28233c0.81185,5.74741 3.21074,11.41716 7.13399,16.38268c-2.63507,-3.79648 -7.03025,-12.54682 -5.34828,-22.78466c3.32507,1.66359 5.88686,4.53616 7.20241,8.60353c-0.86349,-4.07092 -3.18336,-7.5746 -7.01259,-9.99613c0.44853,-2.89963 1.2255,-5.72253 2.28632,-8.37424c1.76099,0.26123 8.49766,2.27917 10.39682,15.19844c-1.37647,-0.73844 -2.68363,-1.14912 -2.68496,-1.14868c0.0349,0.0129 0.85422,0.68654 1.7164,4.15918c0.78977,3.04292 0.37789,6.72937 -0.0102,9.53311c-1.43739,-0.65417 -2.66244,-1.05988 -2.66332,-1.059c-0.001,0 1.44445,1.24891 1.91637,4.92099c0.42071,3.27585 0.40659,7.40616 0.47236,7.35418c0.026,0.00084 -8.0584,-1.18846 -13.06411,-5.84525" id="svg_3" fill="#000000" fill-rule="nonzero" stroke-width="0.04425"/>
   </g>
  </g>
 </g>

</svg>